<?xml version="1.0" encoding="UTF-8" standalone="no"?><!-- Generator: Gravit.io --><svg xmlns="http://www.w3.org/2000/svg" xmlns:xlink="http://www.w3.org/1999/xlink" style="isolation:isolate" viewBox="0 0 500 500" width="500pt" height="500pt"><defs><clipPath id="_clipPath_GPn7aMtByE1v8vHDtnYSOx4KJWAvxgfk"><rect width="500" height="500"/></clipPath></defs><g clip-path="url(#_clipPath_GPn7aMtByE1v8vHDtnYSOx4KJWAvxgfk)"><linearGradient id="_lgradient_8" x1="-0.11264288518139057" y1="0.12904583273216946" x2="0.8285830216224028" y2="0.882183908045977" gradientTransform="matrix(474.766,0,0,348,12.617,76)" gradientUnits="userSpaceOnUse"><stop offset="0.4166666666666667%" stop-opacity="1" style="stop-color:rgb(69,212,255)"/><stop offset="44.98981135667393%" stop-opacity="1" style="stop-color:rgb(10,150,255)"/><stop offset="69.77320718703272%" stop-opacity="1" style="stop-color:rgb(0,140,255)"/><stop offset="86.64930933898441%" stop-opacity="1" style="stop-color:rgb(0,116,210)"/><stop offset="100%" stop-opacity="1" style="stop-color:rgb(0,74,134)"/></linearGradient><path d=" M 320.425 341.553 L 362.681 299.298 L 362.681 299.298 L 387.33 323.947 C 389.273 325.89 392.429 325.89 394.372 323.947 L 415.5 302.819 C 417.443 300.876 417.443 297.72 415.5 295.777 L 390.851 271.128 L 419.021 242.957 L 443.67 267.606 C 445.613 269.55 448.769 269.55 450.713 267.606 L 485.925 232.394 C 487.869 230.45 487.869 227.295 485.925 225.351 L 457.755 197.181 L 443.67 183.096 L 443.67 183.096 L 443.67 183.096 L 422.542 161.968 L 422.542 161.968 C 420.599 160.025 417.443 160.025 415.5 161.968 L 225.351 352.117 C 223.408 354.06 223.408 357.216 225.351 359.159 L 246.479 380.287 L 260.564 394.372 L 260.564 394.372 L 288.734 422.542 C 290.677 424.486 293.833 424.486 295.777 422.542 L 345.074 373.245 C 347.018 371.301 347.018 368.145 345.074 366.202 L 320.425 341.553 Z  M 207.745 200.702 L 84.5 77.458 C 82.557 75.514 79.401 75.514 77.458 77.458 L 14.075 140.841 C 12.131 142.784 12.131 145.94 14.075 147.883 L 140.841 274.649 L 140.841 274.649 L 204.223 338.032 C 206.167 339.975 209.323 339.975 211.266 338.032 L 274.649 274.649 L 274.649 274.649 L 401.415 147.883 C 403.358 145.94 403.358 142.784 401.415 140.841 L 338.032 77.458 C 336.088 75.514 332.933 75.514 330.989 77.458 L 207.745 200.702 L 207.745 200.702 L 207.745 200.702 L 207.745 200.702 Z " fill-rule="evenodd" fill="url(#_lgradient_8)"/><linearGradient id="_lgradient_9" x1="-0.03444485579107056" y1="0.06126192223037418" x2="0.9098952194445097" y2="0.9856933235509904" gradientTransform="matrix(484.76,0,0,358,7.62,71)" gradientUnits="userSpaceOnUse"><stop offset="0.8333333333333334%" stop-opacity="1" style="stop-color:rgb(0,115,208)"/><stop offset="98.75%" stop-opacity="1" style="stop-color:rgb(0,62,113)"/></linearGradient><path d=" M 348.61 362.67 C 350.48 364.54 351.53 367.08 351.53 369.72 C 351.53 372.37 350.48 374.91 348.61 376.78 C 348.61 376.78 348.61 376.78 348.61 376.78 L 299.31 426.08 C 299.31 426.08 299.31 426.08 299.31 426.08 C 297.44 427.95 294.9 429 292.26 429 C 289.61 429 287.07 427.95 285.2 426.08 C 285.2 426.08 285.2 426.08 285.2 426.08 L 257.03 397.91 L 257.03 397.91 L 242.94 383.82 L 221.82 362.7 C 221.82 362.69 221.81 362.69 221.81 362.69 C 219.94 360.82 218.89 358.28 218.89 355.64 C 218.89 352.99 219.94 350.45 221.81 348.58 C 221.81 348.58 221.82 348.58 221.82 348.58 L 411.96 158.43 C 411.96 158.43 411.96 158.43 411.97 158.43 C 413.84 156.56 416.38 155.51 419.02 155.51 C 421.67 155.51 424.21 156.56 426.08 158.43 C 426.08 158.43 426.08 158.43 426.08 158.43 L 447.21 179.56 L 447.21 179.56 L 461.29 193.65 L 489.46 221.82 C 489.46 221.82 489.46 221.82 489.46 221.82 C 491.33 223.69 492.38 226.23 492.38 228.87 C 492.38 231.52 491.33 234.06 489.46 235.93 C 489.46 235.93 489.46 235.93 489.46 235.93 L 454.25 271.14 C 454.25 271.14 454.25 271.14 454.25 271.14 C 452.38 273.01 449.84 274.06 447.19 274.06 C 444.55 274.06 442.01 273.01 440.14 271.14 C 440.14 271.14 440.13 271.14 440.13 271.14 L 419.02 250.03 L 397.92 271.13 L 419.04 292.24 C 419.04 292.24 419.04 292.24 419.04 292.24 C 420.91 294.11 421.96 296.65 421.96 299.3 C 421.96 301.94 420.91 304.48 419.04 306.35 C 419.04 306.35 419.04 306.35 419.04 306.35 L 397.91 327.48 C 397.91 327.48 397.91 327.48 397.91 327.48 C 396.04 329.35 393.5 330.4 390.85 330.4 C 388.21 330.4 385.67 329.35 383.79 327.48 C 383.79 327.48 383.79 327.48 383.79 327.48 L 362.68 306.37 L 327.5 341.55 L 348.61 362.67 C 348.61 362.67 348.61 362.67 348.61 362.67 Z  M 341.55 369.72 L 341.54 369.71 L 341.52 369.72 L 341.54 369.74 L 341.55 369.72 Z  M 228.9 355.64 L 228.89 355.62 L 228.87 355.64 L 228.89 355.65 L 228.9 355.64 L 419.02 165.52 L 419.04 165.5 L 419.02 165.49 L 419.01 165.5 L 419.02 165.52 L 440.13 186.63 L 440.13 186.63 L 454.22 200.72 L 482.38 228.87 L 482.39 228.89 L 482.4 228.87 L 482.39 228.86 L 482.38 228.87 L 447.19 264.06 L 447.18 264.07 L 447.19 264.09 L 447.21 264.07 L 447.19 264.06 L 419.02 235.89 L 383.78 271.13 L 411.95 299.3 L 411.96 299.31 L 411.98 299.3 L 411.96 299.28 L 411.95 299.3 L 390.85 320.4 L 390.84 320.41 L 390.85 320.43 L 390.87 320.41 L 390.85 320.4 L 362.68 292.23 L 313.35 341.55 L 341.52 369.72 L 292.26 418.99 L 264.1 390.84 L 264.1 390.84 L 250.01 376.75 L 228.9 355.64 Z  M 292.26 418.99 L 292.24 419.01 L 292.26 419.02 L 292.27 419.01 L 292.26 418.99 Z  M 207.74 193.63 L 327.45 73.92 C 327.45 73.92 327.45 73.92 327.45 73.92 C 329.33 72.05 331.87 71 334.51 71 C 337.16 71 339.7 72.05 341.57 73.92 C 341.57 73.92 341.57 73.92 341.57 73.92 L 404.95 137.3 C 404.95 137.31 404.95 137.31 404.95 137.31 C 406.82 139.18 407.87 141.72 407.87 144.36 C 407.87 147.01 406.82 149.55 404.95 151.42 C 404.95 151.42 404.95 151.42 404.95 151.42 L 278.18 278.19 L 278.18 278.19 L 214.8 341.57 C 214.8 341.57 214.8 341.57 214.8 341.57 C 212.93 343.44 210.39 344.49 207.74 344.49 C 205.1 344.49 202.56 343.44 200.69 341.57 C 200.69 341.57 200.69 341.57 200.69 341.57 L 137.3 278.18 L 10.54 151.42 C 10.54 151.42 10.54 151.42 10.54 151.42 C 8.67 149.55 7.62 147.01 7.62 144.36 C 7.62 141.72 8.67 139.18 10.54 137.31 C 10.54 137.31 10.54 137.31 10.54 137.3 L 73.92 73.92 C 73.92 73.92 73.92 73.92 73.92 73.92 C 75.79 72.05 78.33 71 80.98 71 C 83.62 71 86.16 72.05 88.03 73.92 C 88.04 73.92 88.04 73.92 88.04 73.92 L 207.74 193.63 Z  M 334.51 81.01 L 397.86 144.36 L 397.88 144.38 L 397.89 144.36 L 397.88 144.35 L 397.86 144.36 L 271.11 271.11 L 271.11 271.11 L 271.12 271.11 L 271.11 271.11 L 207.74 334.48 L 207.73 334.5 L 207.74 334.51 L 207.76 334.5 L 207.74 334.48 L 144.38 271.11 L 17.62 144.36 L 17.61 144.35 L 17.6 144.36 L 17.61 144.38 L 17.62 144.36 L 80.98 81.01 L 80.99 80.99 L 80.98 80.98 L 80.96 80.99 L 80.98 81.01 L 207.74 207.77 L 334.51 81.01 L 334.52 80.99 L 334.51 80.98 L 334.5 80.99 L 334.51 81.01 Z " fill-rule="evenodd" fill="url(#_lgradient_9)"/></g></svg>